<svg width="128" height="128" viewBox="0 0 256 256" xmlns="http://www.w3.org/2000/svg" xmlns:xlink="http://www.w3.org/1999/xlink" version="1.2" baseProfile="tiny" style="font-size: 128px;">
<title>Qt SVG Document</title>
<desc>Generated with Qt</desc>
<defs>
</defs>
<g fill="none" stroke="black" stroke-width="1" fill-rule="evenodd" stroke-linecap="square" stroke-linejoin="bevel">

<g fill="none" stroke="#000000" stroke-opacity="1" stroke-width="1" stroke-linecap="square" stroke-linejoin="bevel" transform="matrix(0.0666667,0,0,0.0666667,0.933333,0.933333)" font-family="微软雅黑" font-size="12" font-weight="400" font-style="normal">
</g>

<g fill="none" stroke="#000000" stroke-opacity="1" stroke-width="1" stroke-linecap="square" stroke-linejoin="bevel" transform="matrix(0.0666667,0,0,0.0666667,0,0)" font-family="微软雅黑" font-size="12" font-weight="400" font-style="normal">
</g>

<g fill="none" stroke="#000000" stroke-opacity="1" stroke-width="1" stroke-linecap="square" stroke-linejoin="bevel" transform="matrix(0.0666667,0,0,0.0666667,0,0)" font-family="微软雅黑" font-size="12" font-weight="400" font-style="normal">
</g>

<g fill="none" stroke="#000000" stroke-opacity="1" stroke-width="1" stroke-linecap="square" stroke-linejoin="bevel" transform="matrix(0.0666667,0,0,0.0666667,0,0)" font-family="微软雅黑" font-size="12" font-weight="400" font-style="normal">
</g>

<g fill="none" stroke="#000000" stroke-opacity="1" stroke-width="1" stroke-linecap="square" stroke-linejoin="bevel" transform="matrix(0.0666667,0,0,0.0666667,0,0)" font-family="微软雅黑" font-size="12" font-weight="400" font-style="normal">
</g>

<g fill="none" stroke="#000000" stroke-opacity="1" stroke-width="1" stroke-linecap="square" stroke-linejoin="bevel" transform="matrix(0.0666667,0,0,0.0666667,0,0)" font-family="微软雅黑" font-size="12" font-weight="400" font-style="normal">
</g>

<g fill="#333333" fill-opacity="1" stroke="none" transform="matrix(1.23045,0,0,1.23045,-26.4546,-29.7156)" font-family="Arial" font-size="16" font-weight="400" font-style="normal">
<path vector-effect="none" fill-rule="nonzero" d="M40,216.15 L40,40.1502 C40,31.3136 47.1634,24.1502 56,24.1502 L195,24.1502 C203.837,24.1502 211,31.3136 211,40.1502 L211,216.15 C211,224.987 203.837,232.15 195,232.15 L56,232.15 C47.1634,232.15 40,224.987 40,216.15 M52,216.15 C52,217.255 52.3905,218.198 53.1716,218.978 C53.9527,219.76 54.8955,220.15 56,220.15 L195,220.15 C196.105,220.15 197.047,219.76 197.828,218.978 C198.609,218.198 199,217.255 199,216.15 L199,40.1502 C199,39.0456 198.609,38.1028 197.828,37.3218 C197.047,36.5407 196.105,36.1502 195,36.1502 L56,36.1502 C54.8954,36.1502 53.9526,36.5407 53.1716,37.3218 C52.3905,38.1028 52,39.0456 52,40.1502 L52,216.15 M87.013,86.7396 C91.3225,86.7396 94.816,83.2498 94.816,78.9449 C94.816,74.64 91.3225,71.1502 87.013,71.1502 C82.7035,71.1502 79.21,74.64 79.21,78.9449 C79.21,83.2498 82.7035,86.7396 87.013,86.7396 M171.79,72.7335 L123.866,72.7335 C120.552,72.7335 117.866,75.4198 117.866,78.7335 C117.866,82.0472 120.552,84.7335 123.866,84.7335 L171.79,84.7335 C175.103,84.7335 177.79,82.0472 177.79,78.7335 C177.79,75.4198 175.103,72.7335 171.79,72.7335 M87.013,134.406 C91.3225,134.406 94.816,130.916 94.816,126.611 C94.816,122.307 91.3225,118.817 87.013,118.817 C82.7035,118.817 79.21,122.307 79.21,126.611 C79.21,130.916 82.7035,134.406 87.013,134.406 M171.79,120.4 L123.866,120.4 C120.552,120.4 117.866,123.086 117.866,126.4 C117.866,129.714 120.552,132.4 123.866,132.4 L171.79,132.4 C175.103,132.4 177.79,129.714 177.79,126.4 C177.79,123.086 175.103,120.4 171.79,120.4 M87.013,183.156 C91.3225,183.156 94.816,179.666 94.816,175.361 C94.816,171.056 91.3225,167.567 87.013,167.567 C82.7035,167.567 79.21,171.056 79.21,175.361 C79.21,179.666 82.7035,183.156 87.013,183.156 M171.79,169.15 L123.866,169.15 C120.552,169.15 117.866,171.836 117.866,175.15 C117.866,178.464 120.552,181.15 123.866,181.15 L171.79,181.15 C175.103,181.15 177.79,178.464 177.79,175.15 C177.79,171.836 175.103,169.15 171.79,169.15 "></path>
</g>

<g fill="none" stroke="#000000" stroke-opacity="1" stroke-width="1" stroke-linecap="square" stroke-linejoin="bevel" transform="matrix(0.0666667,0,0,0.0666667,0,0)" font-family="微软雅黑" font-size="12" font-weight="400" font-style="normal">
</g>

<g fill="none" stroke="#000000" stroke-opacity="1" stroke-width="1" stroke-linecap="square" stroke-linejoin="bevel" transform="matrix(0.0666667,0,0,0.0666667,0,0)" font-family="微软雅黑" font-size="12" font-weight="400" font-style="normal">
</g>

<g fill="none" stroke="#000000" stroke-opacity="1" stroke-width="1" stroke-linecap="square" stroke-linejoin="bevel" transform="matrix(0.0666667,0,0,0.0666667,0,0)" font-family="微软雅黑" font-size="12" font-weight="400" font-style="normal">
</g>

<g fill="none" stroke="#000000" stroke-opacity="1" stroke-width="1" stroke-linecap="square" stroke-linejoin="bevel" transform="matrix(0.0666667,0,0,0.0666667,0,0)" font-family="微软雅黑" font-size="12" font-weight="400" font-style="normal">
</g>

<g fill="none" stroke="#000000" stroke-opacity="1" stroke-width="1" stroke-linecap="square" stroke-linejoin="bevel" transform="matrix(0.0666667,0,0,0.0666667,0,0)" font-family="微软雅黑" font-size="12" font-weight="400" font-style="normal">
</g>

<g fill="none" stroke="#000000" stroke-opacity="1" stroke-width="1" stroke-linecap="square" stroke-linejoin="bevel" transform="matrix(0.0666667,0,0,0.0666667,0,0)" font-family="微软雅黑" font-size="12" font-weight="400" font-style="normal">
</g>

<g fill="none" stroke="#000000" stroke-opacity="1" stroke-width="1" stroke-linecap="square" stroke-linejoin="bevel" transform="matrix(0.0666667,0,0,0.0666667,0.933333,0.933333)" font-family="微软雅黑" font-size="12" font-weight="400" font-style="normal">
</g>
</g>
</svg>