<svg fill="none" width="128" viewBox="0 0 256 256" xmlns:xlink="http://www.w3.org/1999/xlink" version="1.1" height="128" xmlns="http://www.w3.org/2000/svg" style="font-size: 128px;">
    <g transform="matrix(1.236715,0,0,1.236715,-30.093538,-28.63018)">
        <g style="mix-blend-mode:passthrough">
            <g style="mix-blend-mode:passthrough">
                <g style="mix-blend-mode:passthrough">
                    <path fill="#262626" fill-rule="evenodd" d="M24.333446502685547,191.15018463134766C24.333446502685547,199.98718463134765,31.49688650268555,207.15018463134766,40.33344650268555,207.15018463134766L215.33344650268555,207.15018463134766C224.17044650268554,207.15018463134766,231.33344650268555,199.98718463134765,231.33344650268555,191.15018463134766L231.33344650268555,62.150184631347656C231.33344650268555,53.31362463134766,224.17044650268554,46.150184631347656,215.33344650268555,46.150184631347656L40.33344650268555,46.150184631347656C31.49688650268555,46.150184631347656,24.333446502685547,53.31362463134766,24.333446502685547,62.150184631347656L24.333446502685547,191.15018463134766ZM36.33344650268555,191.15018463134766Q36.33344650268555,192.80718463134767,37.505046502685545,193.97818463134766Q38.67664650268554,195.15018463134766,40.33344650268555,195.15018463134766L215.33344650268555,195.15018463134766Q216.99044650268556,195.15018463134766,218.16144650268555,193.97818463134766Q219.33344650268555,192.80718463134767,219.33344650268555,191.15018463134766L219.33344650268555,62.150184631347656Q219.33344650268555,60.493284631347656,218.16144650268555,59.321784631347654Q216.99044650268556,58.150184631347656,215.33344650268555,58.150184631347656L40.33344650268555,58.150184631347656Q38.67654650268555,58.150184631347656,37.505046502685545,59.321784631347654Q36.33344650268555,60.493284631347656,36.33344650268555,62.150184631347656L36.33344650268555,191.15018463134766ZM106.66544650268554,107.34988463134766C106.66544650268554,118.93818463134765,97.23234650268554,128.33248463134765,85.59614650268554,128.33248463134765C73.95984650268554,128.33248463134765,64.52684650268554,118.93818463134765,64.52684650268554,107.34988463134766C64.52684650268554,95.76148463134766,73.95984650268554,86.36718463134765,85.59614650268554,86.36718463134765C97.23234650268554,86.36718463134765,106.66544650268554,95.76148463134766,106.66544650268554,107.34988463134766ZM94.66544650268554,107.34988463134766Q94.66544650268554,105.64528463134766,94.03484650268555,104.05918463134765Q93.34824650268554,102.33188463134766,92.02654650268555,101.01568463134765Q90.69914650268555,99.69368463134765,88.95014650268554,99.00408463134767Q87.33474650268555,98.36718463134765,85.59614650268554,98.36718463134765Q83.85744650268555,98.36718463134765,82.24204650268555,99.00408463134767Q80.49304650268554,99.69368463134765,79.16564650268555,101.01568463134765Q77.84394650268555,102.33188463134766,77.15734650268556,104.05918463134765Q76.52684650268554,105.64528463134766,76.52684650268554,107.34988463134766Q76.52684650268554,109.05448463134766,77.15734650268556,110.64058463134765Q77.84394650268555,112.36778463134766,79.16564650268555,113.68408463134766Q80.49304650268554,115.00608463134766,82.24204650268555,115.69558463134766Q83.85744650268555,116.33248463134765,85.59614650268554,116.33248463134765Q87.33474650268555,116.33248463134765,88.95014650268554,115.69558463134766Q90.69914650268555,115.00598463134766,92.02654650268555,113.68408463134766Q93.34824650268554,112.36778463134766,94.03484650268555,110.64058463134765Q94.66544650268554,109.05448463134766,94.66544650268554,107.34988463134766ZM171.17844650268555,106.19198463134765L142.00544650268554,106.19198463134765C138.69144650268555,106.19198463134765,136.00544650268554,108.87828463134765,136.00544650268554,112.19198463134765C136.00544650268554,115.50568463134766,138.69144650268555,118.19198463134765,142.00544650268554,118.19198463134765L171.17844650268555,118.19198463134765C174.49144650268553,118.19198463134765,177.17844650268555,115.50568463134766,177.17844650268555,112.19198463134765C177.17844650268555,108.87828463134765,174.49144650268553,106.19198463134765,171.17844650268555,106.19198463134765ZM52.33244650268554,167.06918463134764Q52.33244650268554,153.77318463134765,62.299146502685545,144.43108463134766Q72.09984650268555,135.24488463134765,85.88464650268554,135.24488463134765Q99.66944650268555,135.24488463134765,109.47014650268555,144.43108463134766Q119.43674650268555,153.77318463134765,119.43674650268555,167.06918463134764C119.43674650268555,170.38318463134766,116.75054650268555,173.06918463134764,113.43674650268555,173.06918463134764C110.12304650268554,173.06918463134764,107.43674650268555,170.38318463134766,107.43674650268555,167.06918463134764Q107.43674650268555,158.97218463134766,101.26374650268555,153.18618463134766Q94.92474650268555,147.24518463134766,85.88464650268554,147.24518463134766Q76.84444650268554,147.24518463134766,70.50554650268555,153.18618463134766Q64.33244650268554,158.97218463134766,64.33244650268554,167.06918463134764C64.33244650268554,170.38318463134766,61.646146502685546,173.06918463134764,58.33244650268555,173.06918463134764C55.018746502685545,173.06918463134764,52.33244650268554,170.38318463134766,52.33244650268554,167.06918463134764ZM197.10944650268556,138.47298463134766L142.00544650268554,138.47298463134766C138.69144650268555,138.47298463134766,136.00544650268554,141.15918463134767,136.00544650268554,144.47298463134766C136.00544650268554,147.78618463134765,138.69144650268555,150.47318463134764,142.00544650268554,150.47318463134764L197.10944650268556,150.47318463134764C200.42344650268555,150.47318463134764,203.10944650268556,147.78618463134765,203.10944650268556,144.47298463134766C203.10944650268556,141.15918463134767,200.42344650268555,138.47298463134766,197.10944650268556,138.47298463134766Z" fill-opacity="1"></path>
                </g>
            </g>
        </g>
    </g>
</svg>