<svg width="128" fill="none" xmlns="http://www.w3.org/2000/svg" viewBox="0 0 256 256" version="1.1" height="128" xmlns:xlink="http://www.w3.org/1999/xlink" style="font-size: 128px;">
    <g transform="matrix(1.236715,0,0,1.236715,-29.681159,-29.866895)">
        <g style="mix-blend-mode:passthrough">
            <g style="mix-blend-mode:passthrough">
                <g style="mix-blend-mode:passthrough">
                    <path fill="#262626" d="M215,109.71218463134765L201.422,109.71218463134765L201.422,55.150184631347656Q201.422,46.03748463134765,194.978,39.593834631347654Q188.535,33.150184631347656,179.422,33.150184631347656L78.8125,33.150184631347656Q69.69980000000001,33.150184631347656,63.2561,39.593834631347654Q56.8125,46.03748463134765,56.8125,55.150184631347656L56.8125,109.71218463134765L40,109.71218463134765C31.16344,109.71218463134765,24,116.87568463134765,24,125.71218463134765L24,206.15018463134766C24,214.98718463134765,31.16344,222.15018463134766,40,222.15018463134766L215,222.15018463134766C223.837,222.15018463134766,231,214.98718463134765,231,206.15018463134766L231,125.71218463134765C231,116.87568463134765,223.837,109.71218463134765,215,109.71218463134765ZM189.422,109.71218463134765L68.8125,109.71218463134765L68.8125,55.150184631347656Q68.8125,51.00808463134766,71.7414,48.079084631347655Q74.6704,45.150184631347656,78.8125,45.150184631347656L179.422,45.150184631347656Q183.564,45.150184631347656,186.493,48.079084631347655Q189.422,51.00808463134766,189.422,55.150184631347656L189.422,109.71218463134765ZM153.375,73.95868463134767L98.3906,73.95868463134767C95.0769,73.95868463134767,92.3906,76.64498463134765,92.3906,79.95868463134767C92.3906,83.27248463134765,95.0769,85.95868463134767,98.3906,85.95868463134767L153.375,85.95868463134767C156.689,85.95868463134767,159.375,83.27248463134765,159.375,79.95868463134767C159.375,76.64498463134765,156.689,73.95868463134767,153.375,73.95868463134767ZM36,206.15018463134766Q36,207.80718463134767,37.1716,208.97818463134766Q38.3431,210.15018463134766,40,210.15018463134766L215,210.15018463134766Q216.657,210.15018463134766,217.828,208.97818463134766Q219,207.80718463134767,219,206.15018463134766L219,125.71218463134765Q219,124.05538463134765,217.828,122.88378463134765Q216.657,121.71218463134765,215,121.71218463134765L40,121.71218463134765Q38.3431,121.71218463134765,37.1716,122.88378463134765Q36,124.05538463134765,36,125.71218463134765L36,206.15018463134766ZM76,176.15018463134766C81.52289999999999,176.15018463134766,86,171.67318463134765,86,166.15018463134766C86,160.62718463134766,81.52289999999999,156.15018463134766,76,156.15018463134766C70.47720000000001,156.15018463134766,66,160.62718463134766,66,166.15018463134766C66,171.67318463134765,70.47720000000001,176.15018463134766,76,176.15018463134766ZM128,176.15018463134766C133.523,176.15018463134766,138,171.67318463134765,138,166.15018463134766C138,160.62718463134766,133.523,156.15018463134766,128,156.15018463134766C122.4771,156.15018463134766,118,160.62718463134766,118,166.15018463134766C118,171.67318463134765,122.4771,176.15018463134766,128,176.15018463134766ZM179,176.15018463134766C184.523,176.15018463134766,189,171.67318463134765,189,166.15018463134766C189,160.62718463134766,184.523,156.15018463134766,179,156.15018463134766C173.477,156.15018463134766,169,160.62718463134766,169,166.15018463134766C169,171.67318463134765,173.477,176.15018463134766,179,176.15018463134766Z" fill-rule="evenodd" fill-opacity="1"></path>
                </g>
            </g>
        </g>
    </g>
</svg>