<svg width="128" height="128" viewBox="0 0 256 256" xmlns="http://www.w3.org/2000/svg" fill="none" xmlns:xlink="http://www.w3.org/1999/xlink" version="1.1" style="font-size: 128px;">
    <g transform="matrix(1.2300596,0,0,1.2300596,-29.665028,-30.308236)">
        <g style="mix-blend-mode:passthrough">
            <g style="mix-blend-mode:passthrough">
                <g>
                    <path fill-rule="evenodd" fill-opacity="1" fill="#262626" d="M37.00674057006836,210.7596484375L37.00674057006836,46.6396484375Q37.00674057006836,37.526948437499996,43.45039057006836,31.083298437499998Q49.894040570068356,24.6396484375,59.00674057006836,24.6396484375L197.34674057006836,24.6396484375Q206.45974057006836,24.6396484375,212.90274057006835,31.083298437499998Q219.34674057006836,37.526948437499996,219.34674057006836,46.6396484375L219.34674057006836,210.7596484375Q219.34674057006836,219.8726484375,212.90274057006835,226.3156484375Q206.45974057006836,232.7596484375,197.34674057006836,232.7596484375L59.00674057006836,232.7596484375Q49.894040570068356,232.7596484375,43.45039057006836,226.3156484375Q37.00674057006836,219.8726484375,37.00674057006836,210.7596484375ZM79.73724057006837,36.6396484375L79.73724057006837,52.8596484375Q79.73724057006837,58.1243484375,83.45994057006837,61.8469484375Q87.18254057006837,65.5696484375,92.44724057006836,65.5696484375L163.95774057006835,65.5696484375Q169.22174057006836,65.5696484375,172.94474057006835,61.8469484375Q176.66774057006836,58.1243484375,176.66774057006836,52.8596484375L176.66774057006836,36.6396484375L79.73724057006837,36.6396484375ZM67.73724057006837,36.6396484375L67.73724057006837,52.8596484375Q67.73724057006837,63.0948484375,74.97464057006836,70.3322484375Q82.21204057006835,77.5696484375,92.44724057006836,77.5696484375L163.95774057006835,77.5696484375Q174.19274057006837,77.5696484375,181.42974057006836,70.3322484375Q188.66774057006836,63.0948484375,188.66774057006836,52.8596484375L188.66774057006836,36.6396484375L197.34674057006836,36.6396484375Q201.48874057006836,36.6396484375,204.41774057006836,39.5685484375Q207.34674057006836,42.4975484375,207.34674057006836,46.6396484375L207.34674057006836,210.7596484375Q207.34674057006836,214.9016484375,204.41774057006836,217.8306484375Q201.48874057006836,220.7596484375,197.34674057006836,220.7596484375L59.00674057006836,220.7596484375Q54.86464057006836,220.7596484375,51.93564057006836,217.8306484375Q49.00674057006836,214.9016484375,49.00674057006836,210.7596484375L49.00674057006836,46.6396484375Q49.00674057006836,42.4975484375,51.93564057006836,39.5685484375Q54.86464057006836,36.6396484375,59.00674057006836,36.6396484375L67.73724057006837,36.6396484375ZM79.93644057006836,109.3198484375L149.59674057006836,109.3198484375C152.90974057006838,109.3198484375,155.59674057006836,112.0061484375,155.59674057006836,115.3198484375C155.59674057006836,118.6335484375,152.90974057006838,121.3198484375,149.59674057006836,121.3198484375L79.93644057006836,121.3198484375C76.62274057006836,121.3198484375,73.93644057006836,118.6335484375,73.93644057006836,115.3198484375C73.93644057006836,112.0061484375,76.62274057006836,109.3198484375,79.93644057006836,109.3198484375ZM79.93644057006836,152.1996484375L123.78644057006836,152.1996484375C127.10014057006836,152.1996484375,129.78644057006835,154.8856484375,129.78644057006835,158.1996484375C129.78644057006835,161.5136484375,127.10014057006836,164.1996484375,123.78644057006836,164.1996484375L79.93644057006836,164.1996484375C76.62274057006836,164.1996484375,73.93644057006836,161.5136484375,73.93644057006836,158.1996484375C73.93644057006836,154.8856484375,76.62274057006836,152.1996484375,79.93644057006836,152.1996484375Z"></path>
                </g>
            </g>
        </g>
    </g>
</svg>