<svg xmlns:xlink="http://www.w3.org/1999/xlink" version="1.1" viewBox="0 0 256 256" fill="none" width="128" height="128" xmlns="http://www.w3.org/2000/svg" style="font-size: 128px;">
    <g transform="matrix(1.2267881,0,0,1.2267881,-29.028873,-28.799097)">
        <g style="mix-blend-mode:passthrough">
            <g style="mix-blend-mode:passthrough">
                <g style="mix-blend-mode:passthrough">
                    <path fill-opacity="1" fill="#262626" d="M48,94.01890065307617L48,216.15020065307618C48,224.98720065307617,55.16344,232.15020065307618,64,232.15020065307618L192,232.15020065307618C200.837,232.15020065307618,208,224.98720065307617,208,216.15020065307618L208,94.01890065307617C208,89.21240065307617,205.839,84.66050065307617,202.115,81.62180065307618L133.0575,25.27667065307617C130.11360000000002,22.874711653076172,125.8864,22.874711653076172,122.9425,25.27667065307617L53.88502,81.62180065307618C50.16084,84.66050065307617,48,89.21240065307617,48,94.01890065307617ZM60,94.01890065307617L60,216.15020065307618Q60,217.80720065307617,61.1716,218.97820065307616Q62.343199999999996,220.15020065307618,64,220.15020065307618L192,220.15020065307618Q193.657,220.15020065307618,194.828,218.97820065307616Q196,217.80720065307617,196,216.15020065307618L196,94.01890065307617Q196,92.12010065307618,194.529,90.91960065307617L128,36.63770065307617L61.4713,90.91970065307618Q60,92.12010065307618,60,94.01890065307617ZM128.768,129.58420065307615C142.34820000000002,129.58420065307615,153.357,118.60350065307617,153.357,105.05770065307617C153.357,91.51190065307617,142.34820000000002,80.53090065307617,128.768,80.53090065307617C115.1877,80.53090065307617,104.17869999999999,91.51190065307617,104.17869999999999,105.05770065307617C104.17869999999999,118.60350065307617,115.1877,129.58420065307615,128.768,129.58420065307615ZM140.4771,100.45640065307617Q141.3572,102.67370065307617,141.3572,105.05770065307617Q141.3572,107.44170065307617,140.4771,109.65910065307617Q139.52030000000002,112.06980065307617,137.6807,113.90480065307617Q135.8375,115.74330065307618,133.4117,116.70120065307617Q131.1747,117.58450065307618,128.768,117.58450065307618Q126.3612,117.58450065307618,124.1242,116.70120065307617Q121.6984,115.74330065307618,119.8552,113.90480065307617Q118.0156,112.06980065307617,117.0588,109.65910065307617Q116.1787,107.44170065307617,116.1787,105.05770065307617Q116.1787,102.67370065307617,117.0588,100.45640065307617Q118.0156,98.04570065307617,119.8552,96.21070065307617Q121.6984,94.37220065307618,124.1242,93.41430065307617Q126.3612,92.53090065307617,128.768,92.53090065307617Q131.1747,92.53090065307617,133.4117,93.41430065307617Q135.8375,94.37220065307618,137.6807,96.21070065307617Q139.52030000000002,98.04570065307617,140.4771,100.45640065307617ZM96.41409999999999,144.17920065307618L160.289,144.17920065307618C163.603,144.17920065307618,166.289,146.86520065307616,166.289,150.17920065307618C166.289,153.49220065307617,163.603,156.17920065307618,160.289,156.17920065307618L96.41409999999999,156.17920065307618C93.10040000000001,156.17920065307618,90.41409999999999,153.49220065307617,90.41409999999999,150.17920065307618C90.41409999999999,146.86520065307616,93.10040000000001,144.17920065307618,96.41409999999999,144.17920065307618ZM96.41409999999999,177.57420065307616L160.289,177.57420065307616C163.603,177.57420065307616,166.289,180.26120065307617,166.289,183.57420065307616C166.289,186.88820065307618,163.603,189.57420065307616,160.289,189.57420065307616L96.41409999999999,189.57420065307616C93.10040000000001,189.57420065307616,90.41409999999999,186.88820065307618,90.41409999999999,183.57420065307616C90.41409999999999,180.26120065307617,93.10040000000001,177.57420065307616,96.41409999999999,177.57420065307616Z" fill-rule="evenodd"></path>
                </g>
            </g>
        </g>
    </g>
</svg>