<svg fill="none" width="128" xmlns:xlink="http://www.w3.org/1999/xlink" version="1.1" height="128" xmlns="http://www.w3.org/2000/svg" viewBox="0 0 256 256" style="font-size: 128px;">
    <g transform="matrix(1.2342108,0,0,1.2342108,-31.048718,-30.503257)">
        <g style="mix-blend-mode:passthrough">
            <g style="mix-blend-mode:passthrough">
                <g>
                    <path fill-rule="evenodd" fill="#262626" fill-opacity="1" d="M122.95653828125,188.42928701782228L220.00073828125,91.39988701782227L165.97073828125,37.37018701782227L70.46853828125,132.86528701782225L122.95653828125,188.42928701782228ZM114.46713828125,196.91728701782228L61.97953828125,141.35328701782225L37.15673828125,166.17428701782225L37.15673828125,220.05928701782227L91.32113828125,220.05928701782227L114.46713828125,196.91728701782228ZM108.29303828125,220.05928701782227L229.46873828125,98.90288701782227Q232.57673828125,95.79518701782227,232.57673828125,91.39988701782227Q232.57673828125,87.00468701782226,229.46873828125,83.89698701782225L173.46873828125,27.897287017822265Q170.36573828125,24.790287017822266,165.97073828125,24.790287017822266Q161.57573828125,24.790287017822266,158.47073828125,27.900327017822267L58.32683828125,128.03628701782225C58.20043828125,128.13728701782225,58.07703828125,128.24528701782225,57.95723828125,128.35828701782225C57.75183828125,128.55228701782227,57.56323828125,128.75728701782225,57.39133828125,128.97128701782225L27.94355828125,158.41728701782228C27.80218828125,158.55828701782227,27.66859828125,158.70628701782226,27.54305828125,158.85928701782225C26.09351128125,159.95428701782225,25.15673828125,161.69328701782226,25.15673828125,163.64928701782227L25.15673828125,226.05928701782227C25.15673828125,229.37328701782226,27.84302828125,232.05928701782227,31.15673828125,232.05928701782227L195.90673828125,232.05928701782227C199.22073828125,232.05928701782227,201.90673828125,229.37328701782226,201.90673828125,226.05928701782227C201.90673828125,222.74628701782225,199.22073828125,220.05928701782227,195.90673828125,220.05928701782227L108.29303828125,220.05928701782227Z"></path>
                </g>
            </g>
        </g>
    </g>
</svg>