<svg width="128" height="128" viewBox="0 0 256 256" xmlns="http://www.w3.org/2000/svg" xmlns:xlink="http://www.w3.org/1999/xlink" version="1.2" baseProfile="tiny" style="font-size: 128px;">
<title>Qt SVG Document</title>
<desc>Generated with Qt</desc>
<defs>
</defs>
<g fill="none" stroke="black" stroke-width="1" fill-rule="evenodd" stroke-linecap="square" stroke-linejoin="bevel">

<g fill="none" stroke="#000000" stroke-opacity="1" stroke-width="1" stroke-linecap="square" stroke-linejoin="bevel" transform="matrix(0.0666667,0,0,0.0666667,0.933333,0.933333)" font-family="微软雅黑" font-size="12" font-weight="400" font-style="normal">
</g>

<g fill="none" stroke="#000000" stroke-opacity="1" stroke-width="1" stroke-linecap="square" stroke-linejoin="bevel" transform="matrix(0.0666667,0,0,0.0666667,0,0)" font-family="微软雅黑" font-size="12" font-weight="400" font-style="normal">
</g>

<g fill="none" stroke="#000000" stroke-opacity="1" stroke-width="1" stroke-linecap="square" stroke-linejoin="bevel" transform="matrix(0.0666667,0,0,0.0666667,0,0)" font-family="微软雅黑" font-size="12" font-weight="400" font-style="normal">
</g>

<g fill="none" stroke="#000000" stroke-opacity="1" stroke-width="1" stroke-linecap="square" stroke-linejoin="bevel" transform="matrix(0.0666667,0,0,0.0666667,0,0)" font-family="微软雅黑" font-size="12" font-weight="400" font-style="normal">
</g>

<g fill="none" stroke="#000000" stroke-opacity="1" stroke-width="1" stroke-linecap="square" stroke-linejoin="bevel" transform="matrix(0.0666667,0,0,0.0666667,0,0)" font-family="微软雅黑" font-size="12" font-weight="400" font-style="normal">
</g>

<g fill="none" stroke="#000000" stroke-opacity="1" stroke-width="1" stroke-linecap="square" stroke-linejoin="bevel" transform="matrix(0.0666667,0,0,0.0666667,0,0)" font-family="微软雅黑" font-size="12" font-weight="400" font-style="normal">
</g>

<g fill="#333333" fill-opacity="1" stroke="none" transform="matrix(1.23382,0,0,1.23382,-30.7728,-30.0046)" font-family="Arial" font-size="16" font-weight="400" font-style="normal">
<path vector-effect="none" fill-rule="nonzero" d="M79.2536,90.3272 L43.0036,126.577 C37.0962,132.483 32.5847,139.277 29.4689,146.959 C26.4607,154.377 24.9566,162.103 24.9565,170.139 C24.9565,178.176 26.4606,185.903 29.4689,193.32 C32.5847,201.002 37.0964,207.797 43.0042,213.703 C48.9097,219.61 55.7036,224.121 63.3859,227.237 C70.8029,230.245 78.5297,231.749 86.5663,231.749 C94.6029,231.749 102.33,230.245 109.747,227.237 C117.429,224.121 124.223,219.61 130.129,213.702 L147.277,196.483 C151.123,192.634 153.644,188.052 154.841,182.738 C156.039,177.424 155.725,172.201 153.899,167.069 L139.324,126.372 L168.294,97.5967 C170.645,95.2614 170.658,91.4625 168.323,89.1114 C165.988,86.7604 162.189,86.7476 159.838,89.0829 L134.856,113.897 L121.595,76.8669 C120.635,74.1866 120.467,71.4575 121.091,68.6796 C121.715,65.9016 123.034,63.5063 125.047,61.4937 L135.674,50.8365 C140.43,46.083 145.898,42.4539 152.076,39.9492 C158.047,37.5286 164.27,36.3184 170.746,36.3184 C177.222,36.3184 183.445,37.5286 189.416,39.9492 C195.595,42.4539 201.064,46.0853 205.824,50.8435 C210.584,55.6029 214.218,61.0724 216.724,67.252 C219.146,73.2236 220.356,79.4479 220.356,85.9248 C220.356,92.4017 219.146,98.626 216.724,104.598 C214.218,110.777 210.584,116.247 205.823,121.007 L174.963,151.867 C173.838,152.992 173.206,154.518 173.206,156.109 C173.206,157.701 173.838,159.227 174.963,160.352 C176.018,161.407 177.428,162.031 178.918,162.103 C179.014,162.107 179.11,162.109 179.206,162.109 C180.797,162.109 182.323,161.477 183.448,160.352 L214.308,129.492 C220.216,123.585 224.728,116.791 227.844,109.108 C230.852,101.69 232.356,93.9622 232.356,85.9248 C232.356,77.8874 230.852,70.1599 227.844,62.7421 C224.728,55.0591 220.216,48.2638 214.307,42.3562 C208.4,36.4516 201.606,31.9423 193.924,28.8283 C186.508,25.8217 178.782,24.3184 170.746,24.3184 C162.71,24.3184 154.984,25.8217 147.568,28.8283 C139.886,31.9423 133.089,36.4539 127.177,42.3632 L116.565,53.0061 C112.909,56.6595 110.515,61.0075 109.383,66.0501 C108.25,71.0927 108.555,76.0469 110.298,80.9128 L125.454,123.235 L89.8483,158.602 C87.4972,160.938 87.4844,164.737 89.8197,167.088 C92.1549,169.439 95.9539,169.452 98.3049,167.116 L129.922,135.711 L142.593,171.09 C143.643,174.042 143.823,177.045 143.134,180.101 C142.446,183.157 140.993,185.795 138.775,188.015 L121.643,205.217 C116.884,209.978 111.415,213.611 105.237,216.117 C99.2657,218.539 93.0423,219.749 86.5663,219.749 C80.0903,219.749 73.8668,218.539 67.896,216.117 C61.7174,213.611 56.2482,209.978 51.4884,205.216 C46.7281,200.458 43.095,194.989 40.5891,188.81 C38.1674,182.839 36.9566,176.615 36.9566,170.139 C36.9566,163.663 38.1674,157.44 40.5891,151.469 C43.095,145.291 46.7283,139.822 51.4889,135.062 L87.7389,98.8125 C88.8642,97.6873 89.4963,96.1612 89.4963,94.5699 C89.4963,92.9786 88.8642,91.4524 87.7389,90.3272 C86.6137,89.202 85.0876,88.5699 83.4963,88.5699 C81.905,88.5699 80.3789,89.202 79.2536,90.3272 "></path>
</g>

<g fill="none" stroke="#000000" stroke-opacity="1" stroke-width="1" stroke-linecap="square" stroke-linejoin="bevel" transform="matrix(0.0666667,0,0,0.0666667,0,0)" font-family="微软雅黑" font-size="12" font-weight="400" font-style="normal">
</g>

<g fill="none" stroke="#000000" stroke-opacity="1" stroke-width="1" stroke-linecap="square" stroke-linejoin="bevel" transform="matrix(0.0666667,0,0,0.0666667,0,0)" font-family="微软雅黑" font-size="12" font-weight="400" font-style="normal">
</g>

<g fill="none" stroke="#000000" stroke-opacity="1" stroke-width="1" stroke-linecap="square" stroke-linejoin="bevel" transform="matrix(0.0666667,0,0,0.0666667,0,0)" font-family="微软雅黑" font-size="12" font-weight="400" font-style="normal">
</g>

<g fill="none" stroke="#000000" stroke-opacity="1" stroke-width="1" stroke-linecap="square" stroke-linejoin="bevel" transform="matrix(0.0666667,0,0,0.0666667,0,0)" font-family="微软雅黑" font-size="12" font-weight="400" font-style="normal">
</g>

<g fill="none" stroke="#000000" stroke-opacity="1" stroke-width="1" stroke-linecap="square" stroke-linejoin="bevel" transform="matrix(0.0666667,0,0,0.0666667,0,0)" font-family="微软雅黑" font-size="12" font-weight="400" font-style="normal">
</g>

<g fill="none" stroke="#000000" stroke-opacity="1" stroke-width="1" stroke-linecap="square" stroke-linejoin="bevel" transform="matrix(0.0666667,0,0,0.0666667,0,0)" font-family="微软雅黑" font-size="12" font-weight="400" font-style="normal">
</g>

<g fill="none" stroke="#000000" stroke-opacity="1" stroke-width="1" stroke-linecap="square" stroke-linejoin="bevel" transform="matrix(0.0666667,0,0,0.0666667,0.933333,0.933333)" font-family="微软雅黑" font-size="12" font-weight="400" font-style="normal">
</g>
</g>
</svg>